mtllib frame.obj.mtl
v -0.0408432 0.230965 0.587986
vt 0.213768 0.791431
vn -0.99999 4.43587e-006 -0.00437479
v -0.0373747 0.230833 0.610356
vt 0.215535 0.8412
v -0.00780883 0.230775 0.640099
vt 0.21773 0.907129
v 0.0200585 0.230752 0.647071
vt 0.218248 0.92238
v 0.0420153 0.230759 0.642152
vt 0.217881 0.911216
v 0.0622139 0.230776 0.628856
vt 0.216899 0.881419
v 0.074925 0.230824 0.608976
vt 0.215411 0.837036
v 0.079143 0.230875 0.586169
vt 0.213711 0.786218
usemtl 0
f 1/1/1 2/2/1 3/3/1 4/4/1 5/5/1 6/6/1 7/7/1 8/8/1
v -0.0408432 0.210671 0.587959
vt 0.23896 0.791708
v 0.0791431 0.210673 0.586142
vt 0.238788 0.786494
v 0.0749241 0.210643 0.60917
vt 0.240478 0.837801
v 0.0622139 0.210616 0.62883
vt 0.241924 0.881694
v 0.0445287 0.210599 0.642136
vt 0.242906 0.911491
v 0.0200585 0.210592 0.647044
vt 0.243273 0.922655
v -0.0171861 0.210636 0.634562
vt 0.242336 0.895229
v -0.0359288 0.21064 0.610848
vt 0.240637 0.842618
f 9/9/1 10/10/1 11/11/1 12/12/1 13/13/1 14/14/1 15/15/1 16/16/1
v -0.0408413 -0.212762 0.5871
vt 0.764551 0.796831
vn 0.99999 -4.43587e-006 0.00437479
v -0.0359269 -0.21269 0.60999
vt 0.766101 0.847741
v -0.0212463 -0.212784 0.631342
vt 0.767744 0.895136
v -0.00296713 -0.212777 0.641966
vt 0.768491 0.918609
v 0.0200604 -0.212788 0.646185
vt 0.7688 0.927778
v 0.0445306 -0.212775 0.641278
vt 0.768424 0.916614
v 0.0622158 -0.212738 0.627971
vt 0.767419 0.886817
v 0.0749259 -0.212685 0.608311
vt 0.765939 0.842924
v 0.0791449 -0.212622 0.585284
vt 0.764209 0.791616
f 17/17/2 18/18/2 19/19/2 20/20/2 21/21/2 22/22/2 23/23/2 24/24/2 25/25/2
v -0.0408411 -0.232964 0.587045
vt 0.789626 0.797044
v 0.0791451 -0.232782 0.585229
vt 0.789232 0.791828
v 0.074927 -0.232866 0.608036
vt 0.790972 0.842647
v 0.062216 -0.232898 0.627916
vt 0.792442 0.88703
v 0.0444339 -0.232931 0.639621
vt 0.793327 0.913262
v 0.00853509 -0.232948 0.644016
vt 0.793675 0.923397
v -0.022256 -0.232928 0.630924
vt 0.792722 0.89455
v -0.0373726 -0.232881 0.609415
vt 0.791125 0.846811
f 26/26/1 27/27/1 28/28/1 29/29/1 30/30/1 31/31/1 32/32/1 33/33/1
vn -0.00437479 -0.00272604 0.999987
f 20/20/3 31/31/3 21/21/3
f 22/22/3 21/21/3 31/31/3 30/30/3
f 30/30/3 29/29/3 23/23/3 22/22/3
v 0.0799851 -0.232259 0.393231
vt 0.774818 0.36437
vn 7.49004e-006 -0.999996 -0.00272603
v -0.0408411 -0.232922 0.587045
vt 0.789574 0.797044
v -0.151402 -0.232258 0.392219
f 34/34/4 27/27/4 35/35/4 36/34/4
v -0.0408413 -0.212628 0.587101
vt 0.764385 0.79683
v -0.151402 -0.212098 0.392274
vt 0.749795 0.364157
f 36/34/1 26/26/1 37/36/1 38/37/1
vn -7.49004e-006 0.999996 0.00272603
v 0.0791449 -0.212622 0.585284
v 0.0799849 -0.212099 0.393286
f 38/37/5 17/17/5 39/25/5 40/37/5
v 0.0791451 -0.232824 0.585229
vt 0.789284 0.791829
f 40/37/2 25/25/2 41/38/2 34/34/2
f 23/23/2 29/29/2 28/28/2 24/24/2
f 25/25/2 24/24/2 28/28/2 41/38/2
vn 0.00437479 0.00272604 -0.999987
f 34/34/6 36/34/6 38/37/6 40/37/6
f 20/20/1 19/19/1 32/32/1 31/31/1
f 37/36/1 26/26/1 33/33/1 18/18/1
f 32/32/1 19/19/1 18/18/1 33/33/1
vn -0.00437479 -0.00132978 0.99999
f 5/5/7 4/4/7 14/14/7 13/13/7
f 13/13/7 12/12/7 6/6/7 5/5/7
v -0.151404 0.23109 0.393159
vt 0.199682 0.358763
vn -1.3817e-006 0.999999 0.00132979
v 0.079143 0.230833 0.586169
vt 0.213763 0.786218
v 0.079983 0.231089 0.394171
f 42/39/8 1/1/8 43/40/8 44/39/8
v -0.151404 0.210929 0.393132
vt 0.224707 0.359039
v -0.0408432 0.231007 0.587986
vt 0.213716 0.79143
f 45/41/1 9/9/1 46/42/1 42/39/1
v 0.079983 0.210928 0.394144
vn 1.3817e-006 -0.999999 -0.00132979
v -0.0408432 0.210805 0.587959
vt 0.238793 0.791706
f 47/41/9 10/10/9 48/43/9 45/41/9
v 0.0791431 0.210673 0.586142
f 44/39/2 8/8/2 49/10/2 47/41/2
f 11/11/2 7/7/2 6/6/2 12/12/2
f 8/8/2 7/7/2 11/11/2 49/10/2
vn 0.00437479 0.00132978 -0.99999
f 47/41/10 45/41/10 42/39/10 44/39/10
f 3/3/1 15/15/1 14/14/1 4/4/1 3/3/1 15/15/1
f 15/15/1 15/15/1 3/3/1
f 16/16/1 2/2/1 46/42/1 9/9/1
f 2/2/1 16/16/1 15/15/1 3/3/1
v 0.0805461 -0.140324 0.265086
vt 0.651503 0.0775488
vn 4.43587e-006 -0.999998 -0.00202791
v 0.135546 -0.140325 0.265327
v 0.135462 -0.140363 0.284326
vt 0.652913 0.119849
v 0.080463 -0.140363 0.284086
f 50/44/11 51/44/11 52/45/11 53/45/11
v -0.150539 0.153023 0.284225
vt 0.288785 0.117534
vn -0.999237 0.0362101 -0.0146058
v -0.144418 0.139676 0.26467
vt 0.30395 0.0741608
v -0.149104 0.129449 0.265294
vt 0.316692 0.0757669
v -0.15054 0.128009 0.284453
vt 0.319854 0.118457
f 54/46/12 54/46/12 55/47/12 56/48/12 57/49/12
vn -0.909331 0.415886 -0.0125151
v -0.157785 0.110446 0.264552
vt 0.340233 0.0745145
v -0.15807 0.110406 0.284
vt 0.341676 0.117815
f 57/49/13 56/48/13 58/50/13 59/51/13
vn -0.680987 0.732246 -0.00851903
v -0.173087 0.0962133 0.264456
vt 0.357899 0.0746867
v -0.173373 0.0961738 0.283917
vt 0.359343 0.118015
f 59/51/14 58/50/14 60/52/14 61/53/14
vn -0.348969 0.937129 -0.00322603
v -0.192675 0.0889196 0.264572
vt 0.366968 0.0752567
v -0.192954 0.0888811 0.28357
vt 0.368378 0.117555
f 61/53/15 60/52/15 62/54/15 63/55/15
vn 0.0361765 0.999342 0.0025581
v -0.213556 0.0896763 0.264267
vt 0.366013 0.074768
v -0.213835 0.0896378 0.283265
vt 0.367423 0.117066
f 63/55/16 62/54/16 64/56/16 65/57/16
v -0.151066 0.214792 0.404753
vt 0.220745 0.384842
v 0.0799322 0.214791 0.405763
v 0.079983 0.231089 0.394171
v -0.151015 0.23109 0.39316
f 66/58/1 67/58/1 68/39/1 69/39/1
v 0.0805448 0.139675 0.265654
vn -4.43587e-006 0.999998 0.00202791
v 0.0804617 0.139636 0.284654
vt 0.30536 0.116461
v 0.080463 0.152988 0.28437
vt 0.288765 0.115609
f 70/47/17 71/59/17 70/47/17 72/60/17 71/59/17
v -0.150537 0.153393 0.283928
vt 0.288304 0.116867
v -0.150453 0.139676 0.264643
v -0.150536 0.139637 0.283643
v -0.150538 -0.140364 0.28387
vt 0.652972 0.121619
f 73/61/17 74/47/17 75/59/17 73/61/17 76/62/17
vn -0.00437479 -0.00202791 0.999988
f 75/59/18 76/62/18 73/61/18
v -0.150537 0.0896369 0.283849
vt 0.367446 0.117751
v -0.150537 -0.0903631 0.283667
vt 0.590887 0.120336
v 0.0804628 -0.0903631 0.284172
vt 0.590849 0.119211
v 0.080462 0.0896366 0.284529
vt 0.367421 0.117015
f 77/63/18 78/64/18 79/65/18 80/66/18
v -0.0566603 -0.140363 0.283788
vt 0.652936 0.120521
v 0.123686 -0.140363 0.284262
vt 0.652912 0.119821
v 0.123686 -0.0903633 0.284361
v -0.190926 -0.0903629 0.283486
vt 0.590886 0.120326
f 81/67/18 82/68/18 83/65/18 84/69/18
v -0.126641 -0.140363 0.283604
vt 0.652945 0.120793
v -0.173372 -0.0969 0.283525
vt 0.598999 0.120351
f 85/70/18 81/67/18 86/71/18
v -0.158069 -0.111132 0.283551
vt 0.616664 0.120496
f 76/62/18 85/70/18 87/72/18
f 73/61/18 75/59/18 71/59/18 72/60/18
v -0.150537 -0.15375 0.283602
vt 0.669571 0.121246
v 0.0804631 -0.153274 0.284047
vt 0.668938 0.119978
v 0.080463 -0.140363 0.284073
f 76/62/18 88/73/18 89/74/18 90/68/18
v 0.0804626 -0.0456328 0.284261
vt 0.535327 0.118665
v 0.135462 -0.0903634 0.284428
vt 0.59085 0.119244
v 0.139462 -0.0456337 0.284536
vt 0.535329 0.118703
f 91/75/18 79/65/18 92/76/18 93/77/18
v 0.0804624 -0.000913066 0.284349
vt 0.479818 0.118119
v 0.145462 -0.000300093 0.284654
vt 0.479058 0.118154
f 94/78/18 91/75/18 93/77/18 95/79/18
v 0.0804622 0.0446366 0.28444
vt 0.423278 0.117564
v 0.139462 0.0452449 0.28472
vt 0.422525 0.117603
f 96/80/18 94/78/18 95/79/18 97/81/18
v 0.135461 0.0896363 0.284793
f 97/81/18 98/57/18 80/66/18 96/80/18
v 0.135462 -0.140363 0.284326
f 79/65/18 90/68/18 99/45/18 92/76/18
v 0.135461 0.139636 0.284894
v -0.0566569 0.139637 0.284054
v -0.19092 0.0896378 0.283345
vt 0.367422 0.117022
v 0.135461 0.0896363 0.284782
vt 0.367422 0.117042
f 100/59/18 101/59/18 102/82/18 103/83/18
v -0.126636 0.139637 0.283748
v -0.173366 0.0961748 0.283438
vt 0.359308 0.116948
f 101/59/18 104/59/18 105/84/18
v -0.145177 0.139637 0.283666
v -0.158948 0.109584 0.283533
vt 0.342663 0.116798
f 104/59/18 106/59/18 107/85/18
v -0.213835 0.0896378 0.283265
v -0.213834 -0.0903618 0.2829
f 108/57/18 109/76/18 78/64/18 77/63/18
f 75/59/17 71/59/17 70/47/17 74/47/17
v 0.135544 0.139675 0.265894
f 71/59/17 100/59/17 110/47/17 70/47/17
v -0.213835 -0.0720657 0.282937
vt 0.56814 0.119023
v -0.213752 0.0896763 0.264265
vt 0.366013 0.0747658
v -0.213751 -0.0710265 0.263939
vt 0.565488 0.0767104
f 111/86/1 108/57/1 112/87/1 113/88/1
v -0.213751 -0.0903233 0.2639
vt 0.58944 0.0769439
v -0.213834 -0.0903618 0.2829
f 113/88/1 114/89/1 115/76/1 111/86/1
v 0.135545 -0.0903248 0.265428
v 0.139545 -0.0457311 0.265536
vt 0.534088 0.0764042
f 93/77/2 92/76/2 116/89/2 117/90/2
v 0.145545 -0.000372442 0.265654
vt 0.477786 0.0758554
f 95/79/2 93/77/2 117/90/2 118/91/2
v 0.139462 0.0442652 0.284718
vt 0.423741 0.117615
v 0.139545 0.044567 0.265719
vt 0.422004 0.0753116
f 119/92/2 95/79/2 118/91/2 120/93/2
v 0.135545 0.0896748 0.265793
f 120/93/2 121/87/2 98/57/2 119/92/2
v 0.135546 -0.140325 0.265327
f 92/76/2 99/45/2 122/44/2 116/89/2
f 110/47/2 100/59/2 98/57/2 121/87/2
v -0.150452 -0.0903236 0.264177
vn 0.00437479 0.00202791 -0.999988
v -0.150453 0.0896761 0.264542
v 0.0805451 0.089675 0.265552
v 0.0805459 -0.0903246 0.265187
f 123/89/19 124/87/19 125/87/19 126/89/19
v -0.19064 -0.0903234 0.264001
v 0.123769 -0.0903248 0.265376
v 0.123769 -0.140325 0.265275
v -0.0563767 -0.140324 0.264487
f 127/89/19 128/89/19 129/44/19 130/44/19
v -0.173086 -0.0968606 0.264065
vt 0.597555 0.077023
v -0.126355 -0.140324 0.264181
f 131/94/19 130/44/19 132/44/19
v -0.157784 -0.111093 0.264103
vt 0.615221 0.0771952
v -0.144416 -0.140323 0.264102
f 133/95/19 132/44/19 134/44/19
v -0.167282 0.0896761 0.264468
v -0.180116 0.0896762 0.264412
v -0.190641 0.0896762 0.264366
f 135/87/19 136/87/19 137/87/19
f 114/89/19 112/87/19 124/87/19 123/89/19
v 0.0805457 -0.0466242 0.265276
vt 0.535197 0.0764151
f 117/90/19 116/89/19 126/89/19 138/96/19
v 0.0805455 -0.00171494 0.265367
vt 0.479452 0.0758717
f 118/91/19 117/90/19 138/96/19 139/97/19
v 0.0805453 0.0443569 0.26546
vt 0.422265 0.0753142
f 120/93/19 118/91/19 139/97/19 140/98/19
f 140/98/19 125/87/19 121/87/19 120/93/19
v 0.0805461 -0.140324 0.265086
f 122/44/19 141/44/19 126/89/19 116/89/19
v -0.0563779 0.139676 0.265055
v -0.190641 0.0896762 0.264366
f 142/47/19 110/47/19 121/87/19 143/87/19
v -0.126357 0.139676 0.264749
v -0.173087 0.0962133 0.264456
f 144/47/19 142/47/19 145/52/19
v -0.14439 0.139676 0.26467
v -0.157785 0.110446 0.264552
f 146/47/19 144/47/19 147/50/19
v -0.150453 0.139676 0.264643
v -0.150453 0.126445 0.264616
vt 0.320373 0.0743209
f 148/47/19 146/47/19 149/99/19
v -0.150537 0.128814 0.283878
vt 0.318813 0.117164
f 69/39/1 73/61/1 150/100/1 66/58/1
vn -0.00253933 -0.814887 0.579614
v 0.0804619 0.128603 0.284593
vt 0.319053 0.116509
f 67/58/20 66/58/20 150/100/20 151/101/20
vn 0.00253933 0.814887 -0.579614
f 74/47/21 69/39/21 68/39/21 70/47/21
vn -0.00356239 0.57962 0.814879
f 68/39/22 69/39/22 66/58/22 67/58/22
v 0.0805449 0.115096 0.265604
vt 0.334459 0.0744582
f 151/101/2 152/102/2 70/47/2 72/60/2
f 67/58/2 151/101/2 72/60/2 68/39/2
v -0.151067 -0.215432 0.404708
vt 0.754825 0.391891
v -0.150539 -0.128737 0.283932
vt 0.638543 0.121564
v -0.151016 -0.231682 0.39305
vt 0.774163 0.366206
f 153/103/1 154/104/1 134/44/1 134/44/1 155/105/1
v 0.0799305 -0.215433 0.405718
vn -0.00355723 -0.58292 0.812522
v 0.0799814 -0.231683 0.39406
f 156/103/23 153/103/23 155/105/23 157/105/23
vn -0.00254655 0.812529 0.582915
v 0.0804629 -0.128189 0.28411
vt 0.637802 0.119702
f 154/104/24 153/103/24 156/103/24 158/106/24
vn 0.00254655 -0.812529 -0.582915
f 157/105/25 155/105/25 134/44/25 141/44/25
f 157/105/2 141/44/2 141/44/2 158/106/2 156/103/2
vn 0.937022 -0.349025 0.0130575
f 88/73/26 88/73/26 88/73/26
vn -0.999237 -0.0361595 -0.0147526
v -0.149102 -0.130099 0.264768
vt 0.63886 0.0789076
f 154/104/27 159/107/27 134/44/27 88/73/27 88/73/27
vn -0.909327 -0.415839 -0.0142017
f 87/72/28 133/95/28 159/107/28 154/104/28
vn -0.68098 -0.732211 -0.0114888
f 86/71/29 131/94/29 133/95/29 87/72/29
v -0.192953 -0.0896062 0.283208
vt 0.589928 0.119715
vn -0.348961 -0.937111 -0.00702683
v -0.192674 -0.0895676 0.26421
vt 0.588518 0.0774166
f 160/108/30 161/109/30 131/94/30 86/71/30
v -0.213834 -0.0903618 0.2829
vn 0.0361854 -0.999344 -0.00149507
v -0.213555 -0.0903233 0.263902
vt 0.58944 0.0769461
f 162/76/31 163/110/31 161/109/31 160/108/31
vn 0.937019 0.348978 0.014473
f 73/61/32 73/61/32 73/61/32
f 73/61/12 73/61/12 74/47/12 56/48/12 150/100/12
